<?xml version="1.0" encoding="UTF-8" standalone="no"?>
<!-- Created with Inkscape (http://www.inkscape.org/) -->

<svg
   width="7.6432891mm"
   height="8.4913263mm"
   viewBox="0 0 7.6432891 8.4913263"
   version="1.1"
   id="svg1"
   inkscape:version="1.4.4 (dcaf3e7d9e, 2026-05-05)"
   sodipodi:docname="logo.svg"
   xmlns:inkscape="http://www.inkscape.org/namespaces/inkscape"
   xmlns:sodipodi="http://sodipodi.sourceforge.net/DTD/sodipodi-0.dtd"
   xmlns="http://www.w3.org/2000/svg"
   xmlns:svg="http://www.w3.org/2000/svg">
  <sodipodi:namedview
     id="namedview1"
     pagecolor="#ffffff"
     bordercolor="#000000"
     borderopacity="0.25"
     inkscape:showpageshadow="2"
     inkscape:pageopacity="0.0"
     inkscape:pagecheckerboard="0"
     inkscape:deskcolor="#d1d1d1"
     inkscape:document-units="mm"
     inkscape:zoom="0.86412738"
     inkscape:cx="363.37235"
     inkscape:cy="76.377628"
     inkscape:window-width="1920"
     inkscape:window-height="1150"
     inkscape:window-x="0"
     inkscape:window-y="0"
     inkscape:window-maximized="1"
     inkscape:current-layer="layer1" />
  <defs
     id="defs1" />
  <g
     inkscape:label="Layer 1"
     inkscape:groupmode="layer"
     id="layer1"
     transform="translate(-8.9958574,-103.71669)">
    <path
       d="m 15.316212,109.56001 c -0.05987,1.3e-4 -0.119671,0.005 -0.178911,0.0132 l -1.003803,-1.98314 c 0.360706,-0.2726 0.626507,-0.65177 0.759777,-1.08381 0.133271,-0.43202 0.127238,-0.89504 -0.01722,-1.32346 -0.144463,-0.42843 -0.420026,-0.80055 -0.787718,-1.06367 -0.367665,-0.26312 -0.808778,-0.40391 -1.260924,-0.40243 -0.45212,10e-4 -0.892308,0.14515 -1.258253,0.41068 -0.365945,0.26553 -0.639074,0.63945 -0.780732,1.06881 -0.141632,0.42936 -0.144622,0.8924 -0.0085,1.32356 0.136075,0.43114 0.404363,0.80857 0.766842,1.07879 l -0.981207,1.98408 c -0.08078,-0.0147 -0.162693,-0.0223 -0.244819,-0.0226 -0.3305971,-2.4e-4 -0.6493142,0.12324 -0.8934717,0.3461 -0.244184,0.22289 -0.3961342,0.52903 -0.4260056,0.85828 -0.029845,0.32925 0.064558,0.65776 0.2646362,0.92091 0.2000779,0.26316 0.4913842,0.44196 0.8166361,0.5012 0.325226,0.0593 0.660877,-0.005 0.940912,-0.181 0.280061,-0.17568 0.48424,-0.44979 0.572399,-0.7684 0.08819,-0.31864 0.05395,-0.65871 -0.09591,-0.95338 -0.149887,-0.29466 -0.404575,-0.5226 -0.714031,-0.63896 l 0.949192,-1.92099 c 0.335333,0.1967 0.717312,0.29975 1.106091,0.29843 0.388752,-0.001 0.770017,-0.107 1.104,-0.30597 l 0.966126,1.90686 c -0.317447,0.10168 -0.584887,0.31937 -0.74885,0.6096 -0.163989,0.29022 -0.21246,0.63164 -0.135731,0.95604 0.07673,0.32441 0.273024,0.60791 0.549645,0.79394 0.276622,0.186 0.613252,0.26082 0.942605,0.20949 0.32938,-0.0513 0.627274,-0.225 0.834205,-0.48635 0.20693,-0.26136 0.307631,-0.59116 0.282046,-0.92353 -0.02561,-0.33234 -0.175657,-0.64283 -0.420159,-0.86942 -0.244501,-0.22659 -0.565494,-0.35259 -0.898842,-0.35285 z m -4.260056,1.32585 c -9.26e-4,0.14478 -0.04469,0.28607 -0.125783,0.40606 -0.08109,0.11996 -0.195871,0.21325 -0.329856,0.2681 -0.134012,0.0549 -0.281279,0.0688 -0.423201,0.0401 -0.141923,-0.0287 -0.2722038,-0.0987 -0.3743858,-0.2013 -0.1022086,-0.1026 -0.1717411,-0.23312 -0.1998927,-0.37518 -0.028125,-0.14202 -0.0136,-0.28924 0.041778,-0.42301 0.055351,-0.1338 0.1490927,-0.24823 0.2693723,-0.32885 0.1202792,-0.0806 0.2617252,-0.12385 0.4065322,-0.12422 0.09678,1.3e-4 0.19259,0.0193 0.28194,0.0565 0.08935,0.0372 0.170497,0.0916 0.238813,0.16015 0.06832,0.0686 0.122422,0.14994 0.159252,0.23942 0.03683,0.0895 0.05567,0.1854 0.05543,0.28218 z m 1.776915,-3.64328 c -0.359516,-0.009 -0.701146,-0.15881 -0.952103,-0.4164 -0.250958,-0.2576 -0.391398,-0.60303 -0.391398,-0.96266 0,-0.35964 0.14044,-0.70505 0.391398,-0.96265 0.250957,-0.2576 0.592587,-0.40702 0.952103,-0.41642 0.359516,0.009 0.701146,0.15882 0.952076,0.41642 0.250958,0.2576 0.391399,0.60301 0.391399,0.96265 0,0.35963 -0.140441,0.70506 -0.391399,0.96266 -0.25093,0.25759 -0.59256,0.407 -0.952076,0.4164 z m 2.483141,4.37401 c -0.145415,0 -0.287576,-0.0432 -0.408438,-0.12406 -0.120861,-0.0809 -0.215,-0.1958 -0.270483,-0.33023 -0.05548,-0.13444 -0.06982,-0.28231 -0.04117,-0.4249 0.02865,-0.14258 0.09898,-0.27344 0.202089,-0.37602 0.103081,-0.10255 0.234315,-0.17222 0.377031,-0.20013 0.142742,-0.0279 0.290539,-0.0128 0.424682,0.0433 0.134144,0.0562 0.248577,0.15089 0.328851,0.27217 0.08025,0.12129 0.122687,0.26366 0.121947,0.4091 -0.0012,0.19407 -0.07916,0.37979 -0.216747,0.51665 -0.137583,0.13687 -0.323691,0.21384 -0.517763,0.21408 z"
       fill="#ff9332"
       id="path30"
       style="stroke-width:0.264583" />
  </g>
</svg>
